0
SECTION
2
HEADER
9
$INSUNITS
70
4
9
$ACADVER
1
AC1014
9
$HANDSEED
5
FFFF
0
ENDSEC
0
SECTION
2
TABLES
0
TABLE
2
VPORT
5
8
100
AcDbSymbolTable
0
ENDTAB
0
TABLE
2
LTYPE
5
5
100
AcDbSymbolTable
0
LTYPE
5
14
100
AcDbSymbolTableRecord
100
AcDbLinetypeTableRecord
2
BYBLOCK
70
0
0
LTYPE
5
15
100
AcDbSymbolTableRecord
100
AcDbLinetypeTableRecord
2
BYLAYER
70
0
0
ENDTAB
0
TABLE
2
LAYER
5
2
100
AcDbSymbolTable
70
2
0
LAYER
5
50
100
AcDbSymbolTableRecord
100
AcDbLayerTableRecord
2
0
70
0
6
CONTINUOUS
0
ENDTAB
0
TABLE
2
STYLE
5
3
100
AcDbSymbolTable
70
1
0
STYLE
5
11
100
AcDbSymbolTableRecord
100
AcDbTextStyleTableRecord
2
STANDARD
70
0
0
ENDTAB
0
TABLE
2
VIEW
5
6
100
AcDbSymbolTable
70
0
0
ENDTAB
0
TABLE
2
UCS
5
7
100
AcDbSymbolTable
70
0
0
ENDTAB
0
TABLE
2
APPID
5
9
100
AcDbSymbolTable
70
2
0
APPID
5
12
100
AcDbSymbolTableRecord
100
AcDbRegAppTableRecord
2
ACAD
70
0
0
ENDTAB
0
TABLE
2
DIMSTYLE
5
A
100
AcDbSymbolTable
70
1
0
ENDTAB
0
TABLE
2
BLOCK_RECORD
5
1
100
AcDbSymbolTable
70
1
0
BLOCK_RECORD
5
1F
100
AcDbSymbolTableRecord
100
AcDbBlockTableRecord
2
*MODEL_SPACE
0
BLOCK_RECORD
5
1B
100
AcDbSymbolTableRecord
100
AcDbBlockTableRecord
2
*PAPER_SPACE
0
ENDTAB
0
ENDSEC
0
SECTION
2
BLOCKS
0
BLOCK
5
20
100
AcDbEntity
100
AcDbBlockBegin
2
*MODEL_SPACE
0
ENDBLK
5
21
100
AcDbEntity
100
AcDbBlockEnd
0
BLOCK
5
1C
100
AcDbEntity
100
AcDbBlockBegin
2
*PAPER_SPACE
0
ENDBLK
5
1D
100
AcDbEntity
100
AcDbBlockEnd
0
ENDSEC
0
SECTION
2
ENTITIES
0
ARC
5
100
100
AcDbEntity
8
0
100
AcDbCircle
10
-20.63748310546444
20
-29.3686826393558
30
0
40
8.8812499999978076
100
AcDbArc
50
144.91594236192299
51
317.04203999822488
0
LINE
5
101
100
AcDbEntity
8
0
100
AcDbLine
10
20.637516894534311
20
-1.2728359434077952
30
0
11
20.637516894534311
21
6.7360643307701196e-05
31
0
0
LWPOLYLINE
5
102
100
AcDbEntity
8
0
100
AcDbPolyline
90
4
70
1
43
0.0
10
23.837516894537174
20
-31.299932639347578
42
-0.99999999999999989
10
17.437516894537168
20
-31.299932639353273
10
17.437516894533527
20
-27.437432639359525
42
-0.99999999999999989
10
23.837516894533533
20
-27.437432639354029
0
LINE
5
103
100
AcDbEntity
8
0
100
AcDbLine
10
-20.637483105466519
20
-1.2728359434083547
30
0
11
-20.637483105466554
21
6.7360642743707899e-05
31
0
0
LINE
5
104
100
AcDbEntity
8
0
100
AcDbLine
10
20.637516894534276
20
1.2729706646944106
30
0
11
20.637516894534311
21
6.7360643307701196e-05
31
0
0
LINE
5
105
100
AcDbEntity
8
0
100
AcDbLine
10
-20.637483105466554
20
1.2729706646937622
30
0
11
-20.637483105466554
21
6.7360642663771841e-05
31
0
0
ARC
5
106
100
AcDbEntity
8
0
100
AcDbCircle
10
-0.23248122939202531
20
-48.368682639352059
30
0
40
18.999999999999957
100
AcDbArc
50
90.000000000000739
51
137.04203999822494
0
ARC
5
107
100
AcDbEntity
8
0
100
AcDbCircle
10
20.637516894532997
20
-29.368682639355232
30
0
40
8.8812499999978236
100
AcDbArc
50
-137.04203999822329
51
35.084057638078548
0
ARC
5
108
100
AcDbEntity
8
0
100
AcDbCircle
10
0.23251501846111466
20
-48.368682639352052
30
0
40
18.999999999999954
100
AcDbArc
50
42.957960001776648
51
90.000000000000867
0
ARC
5
109
100
AcDbEntity
8
0
100
AcDbCircle
10
60.637516894534436
20
1.2729706646955252
30
0
40
40.000000000000156
100
AcDbArc
50
144.91594236192313
51
180
0
ARC
5
110
100
AcDbEntity
8
0
100
AcDbCircle
10
-60.637483105466714
20
1.2729706646936378
30
0
40
40.000000000000156
100
AcDbArc
50
0
51
35.084057638078647
0
ARC
5
111
100
AcDbEntity
8
0
100
AcDbCircle
10
-60.637483105466679
20
-1.2728359434094028
30
0
40
40.000000000000156
100
AcDbArc
50
-35.08405763807697
51
0
0
ARC
5
112
100
AcDbEntity
8
0
100
AcDbCircle
10
60.637516894534471
20
-1.2728359434077374
30
0
40
40.000000000000156
100
AcDbArc
50
180
51
215.08405763807852
0
LWPOLYLINE
5
113
100
AcDbEntity
8
0
100
AcDbPolyline
90
4
70
1
43
0.0
10
-15.13748310546644
20
26.987567360642693
42
-0.99999999999999989
10
-26.137483105466455
20
26.987567360642764
10
-26.137483105466401
20
31.750067360642412
42
-0.99999999999999989
10
-15.137483105466529
20
31.750067360642909
0
LINE
5
114
100
AcDbEntity
8
0
100
AcDbLine
10
0.23251501846083045
20
-29.368682639352095
30
0
11
1.6894534287104079e-05
21
-29.368682639352098
31
0
0
LINE
5
115
100
AcDbEntity
8
0
100
AcDbLine
10
-0.232481229392274
20
-29.368682639352102
30
0
11
1.6894534269340511e-05
21
-29.368682639352098
31
0
0
ARC
5
116
100
AcDbEntity
8
0
100
AcDbCircle
10
-0.2324812293934464
20
48.368817360638083
30
0
40
18.999999999999957
100
AcDbArc
50
222.95796000177683
51
270.00000000000091
0
ARC
5
117
100
AcDbEntity
8
0
100
AcDbCircle
10
-20.637483105465293
20
29.368817360641202
30
0
40
8.8812499999978325
100
AcDbArc
50
42.95796000177679
51
215.08405763807863
0
ARC
5
118
100
AcDbEntity
8
0
100
AcDbCircle
10
20.637516894532126
20
29.368817360641842
30
0
40
8.8812499999978165
100
AcDbArc
50
-35.084057638076764
51
137.04203999822494
0
ARC
5
119
100
AcDbEntity
8
0
100
AcDbCircle
10
0.23251501845969358
20
48.368817360638062
30
0
40
18.99999999999995
100
AcDbArc
50
270.00000000000085
51
317.04203999822505
0
LINE
5
120
100
AcDbEntity
8
0
100
AcDbLine
10
0.2325150184599778
20
29.368817360638111
30
0
11
1.6894533416689228e-05
21
29.368817360638111
31
0
0
LINE
5
121
100
AcDbEntity
8
0
100
AcDbLine
10
-0.23248122939314442
20
29.368817360638104
30
0
11
1.6894533416689228e-05
21
29.368817360638111
31
0
0
LWPOLYLINE
5
122
100
AcDbEntity
8
0
100
AcDbPolyline
90
4
70
1
43
0.0
10
15.137999999999998
20
-26.988000000000003
42
-0.99999999999999989
10
26.138000000000005
20
-26.988000000000003
10
26.138000000000005
20
-31.751000000000008
42
-0.99999999999999989
10
15.138
20
-31.750999999999991
0
LWPOLYLINE
5
123
100
AcDbEntity
8
0
100
AcDbPolyline
90
4
70
1
43
0.0
10
17.438000000000002
20
-27.438000000000002
42
-0.99999999999999989
10
23.838000000000001
20
-27.438000000000002
10
23.838000000000001
20
-31.301000000000002
42
-0.99999999999999989
10
17.437999999999999
20
-31.301000000000002
0
LWPOLYLINE
5
124
100
AcDbEntity
8
0
100
AcDbPolyline
90
4
70
1
43
0.0
10
23.838000000000001
20
27.438000000000002
42
-0.99999999999999989
10
17.437999999999999
20
27.438000000000002
10
17.438000000000002
20
31.301000000000002
42
-0.99999999999999989
10
23.838000000000001
20
31.301000000000002
0
LWPOLYLINE
5
125
100
AcDbEntity
8
0
100
AcDbPolyline
90
4
70
1
43
0.0
10
-26.138000000000005
20
-26.988000000000003
42
-0.99999999999999989
10
-15.138
20
-26.988000000000003
10
-15.137999999999998
20
-31.751000000000001
42
-0.99999999999999989
10
-26.138000000000005
20
-31.751000000000001
0
LWPOLYLINE
5
126
100
AcDbEntity
8
0
100
AcDbPolyline
90
4
70
1
43
0.0
10
-23.838000000000001
20
-27.438000000000002
42
-0.99999999999999989
10
-17.437999999999999
20
-27.438000000000002
10
-17.438000000000002
20
-31.301000000000002
42
-0.99999999999999989
10
-23.838000000000001
20
-31.301000000000002
0
LWPOLYLINE
5
127
100
AcDbEntity
8
0
100
AcDbPolyline
90
4
70
1
43
0.0
10
-23.838000000000001
20
31.301000000000002
10
-23.838000000000001
20
27.438000000000002
42
0.99999999999999989
10
-17.437999999999999
20
27.438000000000002
10
-17.437999999999999
20
31.301000000000002
42
0.99999999999999989
0
LWPOLYLINE
5
128
100
AcDbEntity
8
0
100
AcDbPolyline
90
4
70
1
43
0.0
10
26.138000000000005
20
31.751000000000001
10
26.138000000000005
20
26.988000000000003
42
-0.99999999999999989
10
15.138
20
26.988000000000003
10
15.137999999999998
20
31.751000000000001
42
-0.99999999999999989
0
ENDSEC
0
SECTION
2
OBJECTS
0
DICTIONARY
5
C
100
AcDbDictionary
3
ACAD_GROUP
350
D
3
ACAD_MLINESTYLE
350
17
0
DICTIONARY
5
D
100
AcDbDictionary
0
DICTIONARY
5
1A
330
C
100
AcDbDictionary
0
DICTIONARY
5
17
100
AcDbDictionary
0
ENDSEC
0
EOF
